<svg xmlns="http://www.w3.org/2000/svg" viewBox="0 0 512 512">
  <defs>
    <linearGradient id="bg" x1="0" y1="0" x2="1" y2="1">
      <stop offset="0" stop-color="#c8853f"/>
      <stop offset="1" stop-color="#a05f28"/>
    </linearGradient>
    <linearGradient id="dough" x1="0" y1="0" x2="0" y2="1">
      <stop offset="0" stop-color="#f4d9a8"/>
      <stop offset="1" stop-color="#e6bd7e"/>
    </linearGradient>
  </defs>
  <rect width="512" height="512" rx="112" fill="url(#bg)"/>
  <!-- банка -->
  <rect x="150" y="150" width="212" height="248" rx="34" fill="#fffdf9" opacity="0.96"/>
  <rect x="168" y="120" width="176" height="46" rx="20" fill="#fffdf9" opacity="0.96"/>
  <!-- закваска -->
  <path d="M150 300 q40 -34 106 -34 q66 0 106 34 v64 a34 34 0 0 1 -34 34 H184 a34 34 0 0 1 -34 -34 z" fill="url(#dough)"/>
  <!-- пузыри -->
  <circle cx="206" cy="320" r="15" fill="#fff" opacity="0.55"/>
  <circle cx="262" cy="306" r="20" fill="#fff" opacity="0.5"/>
  <circle cx="312" cy="328" r="13" fill="#fff" opacity="0.55"/>
  <circle cx="238" cy="352" r="10" fill="#fff" opacity="0.5"/>
  <circle cx="296" cy="356" r="9" fill="#fff" opacity="0.5"/>
  <!-- индикатор готовности -->
  <circle cx="256" cy="206" r="20" fill="#4f9d5d"/>
</svg>
